{
    "asset" : {
        "generator" : "Khronos glTF Blender I/O v1.8.19",
        "version" : "2.0"
    },
    "scene" : 0,
    "scenes" : [
        {
            "name" : "Scene",
            "nodes" : [
                0,
                1
            ]
        }
    ],
    "nodes" : [
        {
            "mesh" : 0,
            "name" : "PixelObject",
            "rotation" : [
                0.7071068286895752,
                0,
                0,
                0.7071068286895752
            ],
            "scale" : [
                0.08093641698360443,
                0.08093641698360443,
                0.08093641698360443
            ],
            "translation" : [
                -8.7327241897583,
                4.751977443695068,
                -8.67267894744873
            ]
        },
        {
            "mesh" : 1,
            "name" : "Cube",
            "scale" : [
                10,
                1,
                10
            ]
        }
    ],
    "materials" : [
        {
            "doubleSided" : true,
            "emissiveFactor" : [
                0.607964277267456,
                0.5926356911659241,
                0.5926356911659241
            ],
            "name" : "\u767d\u8272",
            "pbrMetallicRoughness" : {
                "baseColorFactor" : [
                    0.800000011920929,
                    0.800000011920929,
                    0.800000011920929,
                    1
                ],
                "metallicFactor" : 0,
                "roughnessFactor" : 0.5
            }
        },
        {
            "doubleSided" : true,
            "emissiveFactor" : [
                0.009962066076695919,
                0.009962066076695919,
                0.009962066076695919
            ],
            "name" : "Material",
            "pbrMetallicRoughness" : {
                "baseColorFactor" : [
                    0,
                    0,
                    0,
                    1
                ],
                "metallicFactor" : 0,
                "roughnessFactor" : 0.4000000059604645
            }
        }
    ],
    "meshes" : [
        {
            "name" : "PixelMesh",
            "primitives" : [
                {
                    "attributes" : {
                        "POSITION" : 0,
                        "NORMAL" : 1
                    },
                    "indices" : 2,
                    "material" : 0
                }
            ]
        },
        {
            "name" : "Cube",
            "primitives" : [
                {
                    "attributes" : {
                        "POSITION" : 3,
                        "NORMAL" : 4,
                        "TEXCOORD_0" : 5
                    },
                    "indices" : 6,
                    "material" : 1
                }
            ]
        }
    ],
    "accessors" : [
        {
            "bufferView" : 0,
            "componentType" : 5126,
            "count" : 8160,
            "max" : [
                47,
                0,
                48
            ],
            "min" : [
                -47,
                0,
                -48
            ],
            "type" : "VEC3"
        },
        {
            "bufferView" : 1,
            "componentType" : 5126,
            "count" : 8160,
            "type" : "VEC3"
        },
        {
            "bufferView" : 2,
            "componentType" : 5123,
            "count" : 12240,
            "type" : "SCALAR"
        },
        {
            "bufferView" : 3,
            "componentType" : 5126,
            "count" : 24,
            "max" : [
                1,
                1,
                1
            ],
            "min" : [
                -1,
                -1,
                -1
            ],
            "type" : "VEC3"
        },
        {
            "bufferView" : 4,
            "componentType" : 5126,
            "count" : 24,
            "type" : "VEC3"
        },
        {
            "bufferView" : 5,
            "componentType" : 5126,
            "count" : 24,
            "type" : "VEC2"
        },
        {
            "bufferView" : 6,
            "componentType" : 5123,
            "count" : 36,
            "type" : "SCALAR"
        }
    ],
    "bufferViews" : [
        {
            "buffer" : 0,
            "byteLength" : 97920,
            "byteOffset" : 0
        },
        {
            "buffer" : 0,
            "byteLength" : 97920,
            "byteOffset" : 97920
        },
        {
            "buffer" : 0,
            "byteLength" : 24480,
            "byteOffset" : 195840
        },
        {
            "buffer" : 0,
            "byteLength" : 288,
            "byteOffset" : 220320
        },
        {
            "buffer" : 0,
            "byteLength" : 288,
            "byteOffset" : 220608
        },
        {
            "buffer" : 0,
            "byteLength" : 192,
            "byteOffset" : 220896
        },
        {
            "buffer" : 0,
            "byteLength" : 72,
            "byteOffset" : 221088
        }
    ],
    "buffers" : [
        {
            "byteLength" : 221160,
            "uri" : "data:application/octet-stream;base64,"
        }
    ]
}
